# xmcd
# 
# Track frame offsets:
#     150
#     24158
#     39139
#     60664
#     84991
#     104949
#     130864
#     162757
#     187575
#     204000
# 
# Disc length: 3047
# 
# Revision: 2
# Processed by: cddbd v1.5.2PL0 Copyright (c) Steve Scherf et al.
# Submitted via: fre:ac v1.0.27
# 
DISCID=6c0be50a
DTITLE=Gallagher, Rory - Calling Card
DYEAR=1976
DGENRE=Blues
TTITLE0=Do You Read Me
TTITLE1=Country Mile
TTITLE2=Moonchild
TTITLE3=Calling Card
TTITLE4=I'll Admit You're Gone
TTITLE5=Secret Agent
TTITLE6=Jack-Knife Beat
TTITLE7=Edged In Blue
TTITLE8=Barley And Grape Rag
TTITLE9=Where Was I Going To? *
EXTD=
EXTT0=
EXTT1=
EXTT2=
EXTT3=
EXTT4=
EXTT5=
EXTT6=
EXTT7=
EXTT8=
EXTT9=
PLAYORDER=
